<svg width="34" height="34" viewBox="0 0 34 34" fill="none" xmlns="http://www.w3.org/2000/svg">
<path d="M15.3333 25.3334H18.6666V18.6667H25.3333V15.3334H18.6666V8.66671H15.3333V15.3334H8.66658V18.6667H15.3333V25.3334ZM16.9999 33.6667C14.6944 33.6667 12.5277 33.2292 10.4999 32.3542C8.47214 31.4792 6.70825 30.2917 5.20825 28.7917C3.70825 27.2917 2.52075 25.5278 1.64575 23.5C0.770752 21.4723 0.333252 19.3056 0.333252 17C0.333252 14.6945 0.770752 12.5278 1.64575 10.5C2.52075 8.47226 3.70825 6.70837 5.20825 5.20837C6.70825 3.70837 8.47214 2.52087 10.4999 1.64587C12.5277 0.770874 14.6944 0.333374 16.9999 0.333374C19.3055 0.333374 21.4721 0.770874 23.4999 1.64587C25.5277 2.52087 27.2916 3.70837 28.7916 5.20837C30.2916 6.70837 31.4791 8.47226 32.3541 10.5C33.2291 12.5278 33.6666 14.6945 33.6666 17C33.6666 19.3056 33.2291 21.4723 32.3541 23.5C31.4791 25.5278 30.2916 27.2917 28.7916 28.7917C27.2916 30.2917 25.5277 31.4792 23.4999 32.3542C21.4721 33.2292 19.3055 33.6667 16.9999 33.6667ZM16.9999 30.3334C20.7221 30.3334 23.8749 29.0417 26.4583 26.4584C29.0416 23.875 30.3333 20.7223 30.3333 17C30.3333 13.2778 29.0416 10.125 26.4583 7.54171C23.8749 4.95837 20.7221 3.66671 16.9999 3.66671C13.2777 3.66671 10.1249 4.95837 7.54159 7.54171C4.95825 10.125 3.66659 13.2778 3.66659 17C3.66659 20.7223 4.95825 23.875 7.54159 26.4584C10.1249 29.0417 13.2777 30.3334 16.9999 30.3334Z" fill="#38A169"/>
</svg>
