<svg width="12" height="13" viewBox="0 0 12 13" fill="none" xmlns="http://www.w3.org/2000/svg">
<path d="M5.24969 9.79618V0.999976C5.24969 0.787159 5.32148 0.60896 5.46506 0.465376C5.60864 0.321793 5.78684 0.25 5.99966 0.25C6.21248 0.25 6.39068 0.321793 6.53426 0.465376C6.67784 0.60896 6.74964 0.787159 6.74964 0.999976V9.79618L10.0728 6.47308C10.2112 6.33461 10.3852 6.26378 10.5949 6.26058C10.8045 6.25736 10.9817 6.32819 11.1266 6.47308C11.2714 6.61794 11.3439 6.79358 11.3439 6.99998C11.3439 7.20638 11.2714 7.38201 11.1266 7.52688L6.63234 12.0211C6.45157 12.2019 6.24068 12.2923 5.99966 12.2923C5.75864 12.2923 5.54775 12.2019 5.36699 12.0211L0.872761 7.52688C0.734294 7.38843 0.663461 7.21439 0.660261 7.00478C0.657044 6.79518 0.727878 6.61794 0.872761 6.47308C1.01763 6.32819 1.19326 6.25575 1.39966 6.25575C1.60606 6.25575 1.78169 6.32819 1.92656 6.47308L5.24969 9.79618Z" fill="#52525B"/>
</svg>
