<svg width="12" height="13" viewBox="0 0 12 13" fill="none" xmlns="http://www.w3.org/2000/svg">
<path d="M6.75446 2.74606L6.75446 11.5423C6.75446 11.7551 6.68267 11.9333 6.53909 12.0769C6.39551 12.2204 6.21731 12.2922 6.00449 12.2922C5.79167 12.2922 5.61347 12.2204 5.46989 12.0769C5.32631 11.9333 5.25451 11.7551 5.25451 11.5423L5.25452 2.74606L1.93139 6.06916C1.79294 6.20763 1.61891 6.27846 1.40929 6.28166C1.19969 6.28488 1.02246 6.21404 0.877591 6.06916C0.732708 5.92429 0.660266 5.74866 0.660266 5.54226C0.660266 5.33586 0.732708 5.16023 0.877591 5.01536L5.37182 0.521135C5.55258 0.340368 5.76347 0.249985 6.00449 0.249985C6.24551 0.249985 6.4564 0.340368 6.63717 0.521135L11.1314 5.01536C11.2699 5.15381 11.3407 5.32784 11.3439 5.53746C11.3471 5.74706 11.2763 5.92429 11.1314 6.06916C10.9865 6.21404 10.8109 6.28649 10.6045 6.28649C10.3981 6.28649 10.2225 6.21404 10.0776 6.06916L6.75446 2.74606Z" fill="#52525B"/>
</svg>
