<svg width="22" height="22" viewBox="0 0 22 22" fill="none" xmlns="http://www.w3.org/2000/svg">
<path d="M7 15V17.8C7 18.9201 7 19.4802 7.21799 19.908C7.40973 20.2843 7.71569 20.5903 8.09202 20.782C8.51984 21 9.07989 21 10.2 21H17.8C18.9201 21 19.4802 21 19.908 20.782C20.2843 20.5903 20.5903 20.2843 20.782 19.908C21 19.4802 21 18.9201 21 17.8V10.2C21 9.0799 21 8.51984 20.782 8.09202C20.5903 7.71569 20.2843 7.40973 19.908 7.21799C19.4802 7 18.9201 7 17.8 7H15M4.2 15H11.8C12.9201 15 13.4802 15 13.908 14.782C14.2843 14.5903 14.5903 14.2843 14.782 13.908C15 13.4802 15 12.9201 15 11.8V4.2C15 3.0799 15 2.51984 14.782 2.09202C14.5903 1.71569 14.2843 1.40973 13.908 1.21799C13.4802 1 12.9201 1 11.8 1H4.2C3.0799 1 2.51984 1 2.09202 1.21799C1.71569 1.40973 1.40973 1.71569 1.21799 2.09202C1 2.51984 1 3.07989 1 4.2V11.8C1 12.9201 1 13.4802 1.21799 13.908C1.40973 14.2843 1.71569 14.5903 2.09202 14.782C2.51984 15 3.07989 15 4.2 15Z" stroke="#2B6CB0" stroke-width="1.5" stroke-linecap="round" stroke-linejoin="round"/>
</svg>
