<svg width="21" height="22" viewBox="0 0 21 22" fill="none" xmlns="http://www.w3.org/2000/svg">
<path d="M1.72886 22C1.25379 22 0.846876 21.8229 0.508126 21.4686C0.169375 21.1144 0 20.6889 0 20.1921V4.15816C0 3.66136 0.169375 3.23585 0.508126 2.88161C0.846876 2.52738 1.25379 2.35026 1.72886 2.35026H11.9398L10.5511 3.80247H1.72886C1.64383 3.80247 1.56588 3.83952 1.49503 3.91363C1.42416 3.98772 1.38872 4.06923 1.38872 4.15816V20.1921C1.38872 20.281 1.42416 20.3625 1.49503 20.4366C1.56588 20.5107 1.64383 20.5478 1.72886 20.5478H17.0619C17.1469 20.5478 17.2249 20.5107 17.2957 20.4366C17.3666 20.3625 17.402 20.281 17.402 20.1921V10.8621L18.7908 9.40991V20.1921C18.7908 20.6889 18.6214 21.1144 18.2826 21.4686C17.9439 21.8229 17.537 22 17.0619 22H1.72886ZM6.63205 14.1608V11.8521C6.63205 11.6044 6.67882 11.3677 6.77235 11.1421C6.86588 10.9165 6.992 10.7207 7.15073 10.5547L16.8515 0.410477C16.9909 0.264761 17.1458 0.159924 17.3163 0.0959657C17.4868 0.0319882 17.6609 0 17.8385 0C18.0128 0 18.1853 0.0339616 18.356 0.101888C18.5268 0.169796 18.6823 0.275377 18.8226 0.418627L20.5734 2.24505C20.7137 2.39516 20.8198 2.56146 20.8919 2.74395C20.964 2.92644 21 3.11131 21 3.29856C21 3.48582 20.968 3.66989 20.9039 3.85078C20.8398 4.03167 20.7367 4.19685 20.5947 4.3463L10.8918 14.5239C10.7331 14.6849 10.5459 14.8153 10.3301 14.9151C10.1144 15.0149 9.88806 15.0648 9.65115 15.0648H7.49648C7.24979 15.0648 7.04405 14.9786 6.87926 14.8063C6.71445 14.6339 6.63205 14.4188 6.63205 14.1608ZM8.02077 13.6126H9.79073L16.9606 6.11493L16.0735 5.19171L15.1418 4.25369L8.02077 11.6883V13.6126Z" fill="currentColor"/>
</svg>
