<svg width="30" height="32" viewBox="0 0 30 32" fill="none" xmlns="http://www.w3.org/2000/svg">
<path fill-rule="evenodd" clip-rule="evenodd" d="M4.52381 3.08333C4.18856 3.08333 3.83567 3.22885 3.55255 3.54081C3.26528 3.85734 3.08333 4.31364 3.08333 4.81481V26.8519C3.08333 27.353 3.26528 27.8093 3.55255 28.1259C3.83567 28.4378 4.18856 28.5833 4.52381 28.5833H20.25V15V4.81481C20.25 4.31364 20.0681 3.85734 19.7808 3.54081C19.4977 3.22885 19.1448 3.08333 18.8095 3.08333H4.52381ZM4.52381 31.4167H21.6667H25C26.2598 31.4167 27.468 30.9162 28.3588 30.0254C29.2496 29.1346 29.75 27.9264 29.75 26.6667V15C29.75 14.2176 29.1157 13.5833 28.3333 13.5833H23.0833V4.81481C23.0833 3.64611 22.6632 2.50092 21.8789 1.63666C21.0904 0.767838 19.9898 0.25 18.8095 0.25H4.52381C3.34354 0.25 2.24297 0.767838 1.45446 1.63666C0.670089 2.50092 0.25 3.64611 0.25 4.81481V26.8519C0.25 28.0206 0.67009 29.1657 1.45446 30.03C2.24297 30.8988 3.34354 31.4167 4.52381 31.4167ZM23.0833 28.5833V16.4167H26.9167V26.6667C26.9167 27.175 26.7147 27.6625 26.3553 28.022C25.9958 28.3814 25.5083 28.5833 25 28.5833H23.0833ZM8.33333 8.58333C7.55093 8.58333 6.91667 9.2176 6.91667 10C6.91667 10.7824 7.55093 11.4167 8.33333 11.4167H15C15.7824 11.4167 16.4167 10.7824 16.4167 10C16.4167 9.2176 15.7824 8.58333 15 8.58333H8.33333ZM6.91667 15C6.91667 14.2176 7.55093 13.5833 8.33333 13.5833H15C15.7824 13.5833 16.4167 14.2176 16.4167 15C16.4167 15.7824 15.7824 16.4167 15 16.4167H8.33333C7.55093 16.4167 6.91667 15.7824 6.91667 15ZM8.33333 20.25C7.55093 20.25 6.91667 20.8843 6.91667 21.6667C6.91667 22.4491 7.55093 23.0833 8.33333 23.0833H13.3333C14.1157 23.0833 14.75 22.4491 14.75 21.6667C14.75 20.8843 14.1157 20.25 13.3333 20.25H8.33333Z" fill="#38A169"/>
</svg>
