<svg width="24" height="24" viewBox="0 0 24 24" fill="none" xmlns="http://www.w3.org/2000/svg">
<path d="M18 6.22221C18.3536 5.86858 18.8332 5.66992 19.3333 5.66992C19.581 5.66992 19.8262 5.71869 20.0549 5.81346C20.2837 5.90822 20.4916 6.04711 20.6667 6.22221C20.8418 6.3973 20.9807 6.60517 21.0754 6.83394C21.1702 7.06272 21.219 7.30792 21.219 7.55554C21.219 7.80316 21.1702 8.04836 21.0754 8.27713C20.9807 8.50591 20.8418 8.71378 20.6667 8.88887L9.55556 20L6 20.8889L6.88889 17.3333L18 6.22221Z" stroke="#2B6CB0" stroke-width="1.5" stroke-linecap="round" stroke-linejoin="round"/>
<path d="M8.96296 4L6 8.44445H10.4444L7.48148 12.8889" stroke="#2B6CB0" stroke-width="1.5" stroke-linecap="round" stroke-linejoin="round"/>
</svg>
