<svg width="18" height="22" viewBox="0 0 18 22" fill="none" xmlns="http://www.w3.org/2000/svg">
<path d="M11 1H5.8C4.11984 1 3.27976 1 2.63803 1.32698C2.07354 1.6146 1.6146 2.07354 1.32698 2.63803C1 3.27976 1 4.11984 1 5.8V16.2C1 17.8802 1 18.7202 1.32698 19.362C1.6146 19.9265 2.07354 20.3854 2.63803 20.673C3.27976 21 4.11984 21 5.8 21H12.2C13.8802 21 14.7202 21 15.362 20.673C15.9265 20.3854 16.3854 19.9265 16.673 19.362C17 18.7202 17 17.8802 17 16.2V7M11 1L17 7M11 1V7H17M10.75 13V11.25C10.75 10.2835 9.9665 9.5 9 9.5C8.0335 9.5 7.25 10.2835 7.25 11.25V13M7.1 17H10.9C11.4601 17 11.7401 17 11.954 16.891C12.1422 16.7951 12.2951 16.6422 12.391 16.454C12.5 16.2401 12.5 15.9601 12.5 15.4V14.6C12.5 14.0399 12.5 13.7599 12.391 13.546C12.2951 13.3578 12.1422 13.2049 11.954 13.109C11.7401 13 11.4601 13 10.9 13H7.1C6.53995 13 6.25992 13 6.04601 13.109C5.85785 13.2049 5.70487 13.3578 5.60899 13.546C5.5 13.7599 5.5 14.0399 5.5 14.6V15.4C5.5 15.9601 5.5 16.2401 5.60899 16.454C5.70487 16.6422 5.85785 16.7951 6.04601 16.891C6.25992 17 6.53995 17 7.1 17Z" stroke="#2B6CB0" stroke-width="1.5" stroke-linecap="round" stroke-linejoin="round"/>
</svg>
